<svg width="32" height="32" xmlns="http://www.w3.org/2000/svg">
 <!-- Created with SVG Editor - http://github.com/mzalive/SVG Editor/ -->
 <defs>
  <linearGradient y2="-1.823504" x2="0.876276" y1="3.602502" x1="0.323941" id="svg_20">
   <stop stop-color="#00FFA3"/>
   <stop stop-color="#DC1FFF" offset="1"/>
  </linearGradient>
  <linearGradient y2="-3.32352" x2="0.876276" y1="2.102501" x1="0.323941" id="svg_21">
   <stop stop-color="#00FFA3"/>
   <stop stop-color="#DC1FFF" offset="1"/>
  </linearGradient>
  <linearGradient y2="-0.30427" x2="0.876276" y1="5.121737" x1="0.323941" id="svg_22">
   <stop stop-color="#00FFA3"/>
   <stop stop-color="#DC1FFF" offset="1"/>
  </linearGradient>
 </defs>
 <g>
  <title>background</title>
  <rect fill="none" id="canvas_background" height="34" width="34" y="-1" x="-1"/>
  <g display="none" overflow="visible" y="0" x="0" height="100%" width="100%" id="canvasGrid">
   <rect fill="url(#gridpattern)" stroke-width="0" y="0" x="0" height="100%" width="100%"/>
  </g>
 </g>
 <g>
  <title>Layer 1</title>

  <ellipse ry="16.142857" rx="16.142857" id="svg_24" cy="16" cx="16" fill-opacity="null" stroke-opacity="null" stroke-width="0" stroke="null" fill="black"/>
  <g id="svg_23">
   <path transform="rotate(180 15.999999999999998,21.844039916992188) " stroke="null" id="svg_10" fill="url(#svg_22)" d="m23.725258,36.438738c-0.140036,0.139978 -0.329974,0.218544 -0.527969,0.218544l-18.268387,0c-0.332794,0 -0.499364,-0.40238 -0.263956,-0.637615l3.609796,-3.606918c0.140036,-0.139978 0.329974,-0.218601 0.527969,-0.218601l18.268387,0c0.332794,0 0.499364,0.402438 0.263956,0.637673l-3.609796,3.606918z"/>
   <path transform="rotate(180 15.999999999999998,21.844039916992188) " stroke="null" id="svg_11" fill="url(#svg_21)" d="m23.725258,22.963443c-0.140036,0.13995 -0.329974,0.218561 -0.527969,0.218561l-18.268387,0c-0.332794,0 -0.499364,-0.402421 -0.263956,-0.637661l3.609796,-3.606918c0.140036,-0.139921 0.329974,-0.218544 0.527969,-0.218544l18.268387,0c0.332794,0 0.499364,0.40238 0.263956,0.637615l-3.609796,3.606947z"/>
   <path transform="rotate(180 15.999999999999998,21.844039916992188) " stroke="null" id="svg_12" fill="url(#svg_20)" d="m8.274742,29.658191c0.140036,0.139921 0.329974,0.218544 0.527969,0.218544l18.268387,0c0.332794,0 0.499364,-0.402438 0.263956,-0.637615l-3.609796,-3.606976c-0.140036,-0.139921 -0.329974,-0.218544 -0.527969,-0.218544l-18.268387,0c-0.332794,0 -0.499364,0.402438 -0.263956,0.637673l3.609796,3.606918z"/>
  </g>
 </g>
</svg>