<svg width="151" height="162" viewBox="0 0 151 162" fill="none" xmlns="http://www.w3.org/2000/svg">
<ellipse cx="14.5842" cy="14.0413" rx="14.5842" ry="14.0413" transform="matrix(0.452808 -0.891608 -0.891608 -0.452808 56.4998 148.125)" fill="url(#paint0_linear_1813_419)"/>
<ellipse cx="14.5842" cy="14.0413" rx="14.5842" ry="14.0413" transform="matrix(-0.998403 0.0564853 0.0564853 0.998403 64.3521 76.7832)" fill="url(#paint1_linear_1813_419)"/>
<ellipse cx="14.5842" cy="14.0413" rx="14.5842" ry="14.0413" transform="matrix(-0.749621 -0.661867 -0.661867 0.749621 40.5872 75.2378)" fill="url(#paint2_linear_1813_419)"/>
<ellipse cx="14.5842" cy="14.0413" rx="14.5842" ry="14.0413" transform="matrix(0.18538 -0.982667 -0.982667 -0.18538 31.4553 128.339)" fill="url(#paint3_linear_1813_419)"/>
<path fill-rule="evenodd" clip-rule="evenodd" d="M71 85.0479C71 83.2482 70.0328 81.5873 68.4675 80.6992L8.46752 46.6542C5.13433 44.7629 1 47.1706 1 51.0029V118.943C1 120.743 1.9672 122.404 3.53247 123.292L63.5325 157.337C66.8657 159.228 71 156.821 71 152.988V85.0479ZM42.6999 123.375C42.6999 117.891 46.5772 115.668 51.3601 118.41C56.1431 121.152 60.0204 127.821 60.0204 133.305C60.0204 138.789 56.1431 141.012 51.3601 138.27C46.5772 135.528 42.6999 128.859 42.6999 123.375ZM51.3601 83.3344C46.5772 80.5923 42.6999 82.8152 42.6999 88.2993C42.6999 93.7833 46.5772 100.452 51.3601 103.194C56.1431 105.936 60.0204 103.713 60.0204 98.229C60.0204 92.745 56.1431 86.0764 51.3601 83.3344ZM11.9797 105.763C11.9797 100.279 15.857 98.0563 20.6399 100.798C25.4228 103.54 29.3002 110.209 29.3002 115.693C29.3002 121.177 25.4228 123.4 20.6399 120.658C15.857 117.916 11.9797 111.247 11.9797 105.763ZM20.6399 65.7225C15.857 62.9805 11.9797 65.2033 11.9797 70.6874C11.9797 76.1715 15.857 82.84 20.6399 85.5821C25.4228 88.3241 29.3002 86.1012 29.3002 80.6172C29.3002 75.1331 25.4228 68.4645 20.6399 65.7225Z" fill="#2B4062"/>
<ellipse cx="100.601" cy="94.9412" rx="14.5842" ry="14.0413" fill="url(#paint4_linear_1813_419)"/>
<path d="M67.7273 82.0081L7.72726 47.9632C5.39403 46.6393 2.5 48.3246 2.5 51.0073V118.948C2.5 120.208 3.17704 121.37 4.27273 121.992L64.2727 156.037C66.606 157.361 69.5 155.675 69.5 152.993V85.0522C69.5 83.7924 68.823 82.6298 67.7273 82.0081Z" stroke="url(#paint5_linear_1813_419)" stroke-width="3"/>
<path d="M132.056 37.3119C123.285 48.8747 92.0881 69.9915 75.3004 69.9915C58.5126 69.9915 19.2068 43.0586 17.7573 38.1093C16.7861 34.7931 59.3734 9.38249 75.0652 3.28805C79.1691 1.90084 122.62 26.1478 132.056 37.3119Z" fill="url(#paint6_linear_1813_419)"/>
<ellipse cx="14.5842" cy="14.0413" rx="14.5842" ry="14.0413" transform="matrix(1 0 0 -1 117.407 124.457)" fill="url(#paint7_linear_1813_419)"/>
<ellipse cx="14.5842" cy="14.0413" rx="14.5842" ry="14.0413" transform="matrix(1 0 0 -1 117.407 124.457)" fill="url(#paint8_linear_1813_419)"/>
<path fill-rule="evenodd" clip-rule="evenodd" d="M80.1857 85.0523C80.1857 83.2526 81.1529 81.5917 82.7181 80.7036L142.718 46.6586C146.051 44.7673 150.186 47.175 150.186 51.0073V118.948C150.186 120.748 149.218 122.408 147.653 123.297L87.6532 157.341C84.32 159.233 80.1857 156.825 80.1857 152.993V85.0523ZM121.886 115.698C121.886 110.214 125.763 103.545 130.546 100.803C135.329 98.0609 139.206 100.284 139.206 105.768C139.206 111.252 135.329 117.92 130.546 120.662C125.763 123.405 121.886 121.182 121.886 115.698ZM99.8256 83.3386C95.0427 86.0806 91.1653 92.7492 91.1653 98.2333C91.1653 103.717 95.0427 105.94 99.8256 103.198C104.609 100.456 108.486 93.7875 108.486 88.3035C108.486 82.8194 104.609 80.5966 99.8256 83.3386Z" fill="#2B4062"/>
<path fill-rule="evenodd" clip-rule="evenodd" d="M79.97 73.6098C77.5786 74.9905 73.7013 74.9905 71.3098 73.6098L14.1521 40.6098C11.7607 39.229 11.7607 36.9905 14.1521 35.6098L71.3098 2.60975C73.7013 1.22904 77.5786 1.22904 79.9701 2.60975L137.128 35.6098C139.519 36.9905 139.519 39.229 137.128 40.6098L79.97 73.6098ZM89.8871 41.9145C93.3424 42.0446 96.4971 41.4707 98.7462 40.2783C100.136 39.543 101.037 38.7486 101.616 37.75C101.956 37.1658 102.115 36.6371 102.14 36.0134C102.17 35.2441 102.016 34.6479 101.61 33.9206C101.166 33.1303 100.46 32.3928 99.4273 31.6423C99.047 31.3664 97.7847 30.6465 97.2562 30.4037C94.7122 29.2347 91.6455 28.4199 87.7824 27.8814C81.7029 27.0339 74.0953 26.9929 65.2726 27.7642C63.2678 27.9394 61.4232 28.13 61.3946 28.1669C61.3686 28.1994 61.1354 28.9403 60.9655 29.5368C58.947 36.5665 59.5165 42.3003 62.6374 46.3045C65.0018 49.3377 68.8331 51.2529 73.2619 51.6164C76.3832 51.8721 79.5481 51.3011 81.7935 50.0805C82.1352 49.8949 82.7683 49.4857 83.0184 49.2917C84.6984 47.9836 85.4494 46.3861 85.2396 44.6034L89.6064 47.1246C88.5078 47.7589 88.4919 48.7781 89.5709 49.4011L87.3452 50.6861C86.6442 51.0908 86.6442 51.747 87.3452 52.1517C88.0462 52.5564 89.1827 52.5564 89.8837 52.1517L102.966 44.5986C103.667 44.1939 103.667 43.5377 102.966 43.133C102.265 42.7283 101.128 42.7283 100.427 43.133L98.2018 44.418C97.1228 43.7951 95.3574 43.8042 94.2588 44.4385L89.8871 41.9145ZM54.8553 24.375C54.2843 24.7047 54.2843 25.2392 54.8553 25.5688L57.8637 27.3058C58.4347 27.6354 59.3605 27.6354 59.9314 27.3058C60.5024 26.9761 60.5024 26.4416 59.9314 26.112L56.923 24.375C56.352 24.0454 55.4262 24.0454 54.8553 24.375ZM68.158 21.1493C67.9561 20.7 68.4206 20.2356 69.1954 20.112C69.9703 19.9883 70.7622 20.2523 70.9641 20.7016L72.0445 23.1055C72.2465 23.5548 71.782 24.0192 71.0071 24.1428C70.2323 24.2665 69.4404 24.0025 69.2385 23.5532L68.158 21.1493ZM82.6557 20.2696C81.8554 20.2738 81.2008 20.6518 81.1935 21.1138L81.154 23.6237C81.1467 24.0857 81.7896 24.4569 82.5899 24.4527C83.3902 24.4485 84.0448 24.0705 84.0521 23.6085L84.0916 21.0986C84.0989 20.6366 83.456 20.2654 82.6557 20.2696ZM53.5267 41.2314C54.3269 41.2272 54.9816 40.8493 54.9889 40.3872C54.9962 39.9252 54.3533 39.554 53.553 39.5582L49.2058 39.581C48.4055 39.5852 47.7509 39.9632 47.7436 40.4252C47.7363 40.8873 48.3792 41.2584 49.1795 41.2542L53.5267 41.2314ZM47.4715 32.6541C47.2573 33.1015 47.7145 33.5586 48.4927 33.6752L52.6565 34.299C53.4346 34.4156 54.239 34.1475 54.4532 33.7001C54.6673 33.2527 54.2101 32.7955 53.432 32.679L49.2682 32.0551C48.49 31.9386 47.6856 32.2067 47.4715 32.6541Z" fill="#2B4062"/>
<path d="M83.4584 82.0081L143.458 47.9632C145.792 46.6393 148.686 48.3246 148.686 51.0073V118.948C148.686 120.208 148.009 121.37 146.913 121.992L86.9129 156.037C84.5797 157.361 81.6857 155.675 81.6857 152.993V85.0522C81.6857 83.7924 82.3627 82.6298 83.4584 82.0081Z" stroke="url(#paint9_linear_1813_419)" stroke-width="3"/>
<rect x="8.9407e-08" y="-1.5" width="73" height="73" rx="3.5" transform="matrix(-0.866025 -0.5 0.866025 -0.5 76.9389 73.8599)" stroke="url(#paint10_linear_1813_419)" stroke-width="3"/>
<defs>
<linearGradient id="paint0_linear_1813_419" x1="4.96413" y1="30.1506" x2="22.1818" y2="-3.43421" gradientUnits="userSpaceOnUse">
<stop stop-color="#3380FF"/>
<stop offset="1" stop-color="#06D7FF"/>
</linearGradient>
<linearGradient id="paint1_linear_1813_419" x1="14.5842" y1="0" x2="14.5842" y2="28.0825" gradientUnits="userSpaceOnUse">
<stop stop-color="#3380FF"/>
<stop offset="1" stop-color="#06D7FF"/>
</linearGradient>
<linearGradient id="paint2_linear_1813_419" x1="14.5842" y1="0" x2="14.5842" y2="28.0825" gradientUnits="userSpaceOnUse">
<stop stop-color="#3380FF"/>
<stop offset="1" stop-color="#06D7FF"/>
</linearGradient>
<linearGradient id="paint3_linear_1813_419" x1="14.5842" y1="0" x2="14.5842" y2="28.0825" gradientUnits="userSpaceOnUse">
<stop stop-color="#3380FF"/>
<stop offset="1" stop-color="#06D7FF"/>
</linearGradient>
<linearGradient id="paint4_linear_1813_419" x1="100.601" y1="80.8999" x2="100.601" y2="108.982" gradientUnits="userSpaceOnUse">
<stop stop-color="#3380FF"/>
<stop offset="1" stop-color="#06D7FF"/>
</linearGradient>
<linearGradient id="paint5_linear_1813_419" x1="36" y1="161.579" x2="36" y2="42.4214" gradientUnits="userSpaceOnUse">
<stop stop-color="#0CCAFF"/>
<stop offset="1" stop-color="#2797FF"/>
</linearGradient>
<linearGradient id="paint6_linear_1813_419" x1="75.0658" y1="16.4795" x2="75.0658" y2="66.1933" gradientUnits="userSpaceOnUse">
<stop stop-color="#3380FF"/>
<stop offset="1" stop-color="#06D7FF"/>
</linearGradient>
<linearGradient id="paint7_linear_1813_419" x1="14.5842" y1="0" x2="14.5842" y2="28.0825" gradientUnits="userSpaceOnUse">
<stop stop-color="#EF6614"/>
<stop offset="1" stop-color="#F1CE07"/>
</linearGradient>
<linearGradient id="paint8_linear_1813_419" x1="14.5842" y1="0" x2="14.5842" y2="28.0825" gradientUnits="userSpaceOnUse">
<stop stop-color="#3380FF"/>
<stop offset="1" stop-color="#06D7FF"/>
</linearGradient>
<linearGradient id="paint9_linear_1813_419" x1="115.186" y1="161.579" x2="115.186" y2="42.4214" gradientUnits="userSpaceOnUse">
<stop stop-color="#0CCAFF"/>
<stop offset="1" stop-color="#2797FF"/>
</linearGradient>
<linearGradient id="paint10_linear_1813_419" x1="38" y1="76" x2="38" y2="0" gradientUnits="userSpaceOnUse">
<stop stop-color="#0CCAFF"/>
<stop offset="1" stop-color="#2797FF"/>
</linearGradient>
</defs>
</svg>
